<svg version="1.1" id="Layer_1" xmlns="http://www.w3.org/2000/svg" xmlns:xlink="http://www.w3.org/1999/xlink" x="0px" y="0px"
	 width="100%" viewBox="0 0 480 480" enable-background="new 0 0 480 480" xml:space="preserve">
<path fill="#000000" opacity="1.000000" stroke="none" 
	d="
M481.000000,302.000000 
	C481.000000,361.593689 481.000000,421.187347 481.000000,481.000000 
	C421.645966,481.000000 362.291626,481.000000 302.403259,480.647949 
	C302.916077,479.023804 303.909149,477.702454 305.019531,476.488434 
	C309.040344,472.092255 309.107513,468.653625 304.882263,464.413635 
	C285.272552,444.735565 265.633911,425.086182 245.955078,405.477295 
	C241.077652,400.617218 236.979996,400.879028 232.449432,406.050842 
	C228.714294,410.314667 229.051315,414.529541 233.650986,419.137878 
	C252.688812,438.211731 271.770020,457.242340 290.778778,476.345001 
	C292.088837,477.661530 292.937012,479.437622 294.000000,481.000000 
	C196.410767,481.000000 98.821541,481.000000 1.000000,481.000000 
	C1.000000,394.979248 1.000000,308.958282 1.348342,222.408707 
	C3.507698,223.794037 5.274067,225.752625 7.136244,227.615417 
	C57.197021,277.692383 107.312744,327.714630 157.246124,377.918243 
	C161.020737,381.713318 165.037582,383.296692 169.956955,382.844635 
	C172.873688,382.576630 175.781494,381.629700 178.570221,380.640900 
	C205.417145,371.121796 231.836121,360.639526 256.777100,346.686554 
	C274.167267,336.957794 290.441650,325.657257 305.121582,312.246979 
	C325.895172,293.270020 342.127533,270.755219 354.680817,245.617752 
	C366.029480,222.892532 374.029724,198.886536 380.513885,174.415131 
	C381.955475,168.974670 382.462555,162.811401 377.299469,157.670868 
	C326.464844,107.058403 275.783051,56.292404 225.072083,5.555822 
	C223.634445,4.117451 222.353821,2.522140 221.000000,1.000002 
	C307.598175,1.000000 394.196381,1.000000 481.000000,1.000000 
	C481.000000,98.687462 481.000000,196.375076 480.649536,294.598511 
	C478.603729,293.362457 476.940521,291.558472 475.208038,289.823639 
	C456.405823,270.995575 437.602325,252.168747 418.775726,233.365097 
	C414.187958,228.782928 409.834076,228.741714 405.387726,233.107437 
	C400.720459,237.690079 400.783600,241.265823 405.765503,246.255341 
	C425.390930,265.910675 445.035065,285.547333 464.688477,305.174683 
	C468.437195,308.918396 471.945984,308.952423 475.973938,305.564240 
	C477.540344,304.246613 479.318390,303.180634 481.000000,302.000000 
M384.000488,371.499512 
	C369.523956,357.024445 355.049652,342.547150 340.569519,328.075684 
	C336.102997,323.611847 332.896240,323.631409 328.383179,328.121094 
	C323.577179,332.902191 323.512787,336.002228 328.209839,340.702850 
	C347.974121,360.482269 367.746399,380.253693 387.529755,400.014038 
	C391.647186,404.126648 395.249023,404.088165 399.505005,399.982086 
	C404.007538,395.638031 404.232727,391.906067 400.011932,387.557434 
	C394.911957,382.303009 389.677032,377.179626 384.000488,371.499512 
z"/>
<path fill="#4E4E4E" opacity="1.000000" stroke="none" 
	d="
M220.541931,1.000002 
	C222.353821,2.522140 223.634445,4.117451 225.072083,5.555822 
	C275.783051,56.292404 326.464844,107.058403 377.299469,157.670868 
	C382.462555,162.811401 381.955475,168.974670 380.513885,174.415131 
	C374.029724,198.886536 366.029480,222.892532 354.680817,245.617752 
	C342.127533,270.755219 325.895172,293.270020 305.121582,312.246979 
	C290.441650,325.657257 274.167267,336.957794 256.777100,346.686554 
	C231.836121,360.639526 205.417145,371.121796 178.570221,380.640900 
	C175.781494,381.629700 172.873688,382.576630 169.956955,382.844635 
	C165.037582,383.296692 161.020737,381.713318 157.246124,377.918243 
	C107.312744,327.714630 57.197021,277.692383 7.136244,227.615417 
	C5.274067,225.752625 3.507698,223.794037 1.348342,221.940048 
	C1.000000,218.969406 1.000000,215.938812 1.385044,212.472992 
	C2.111143,211.698990 2.639820,211.418610 2.766063,211.012970 
	C6.884070,197.781708 10.602915,184.413681 15.131151,171.325485 
	C22.299141,150.607498 31.784336,130.899719 43.954487,112.657356 
	C54.636395,96.645767 67.153282,82.196861 81.802994,69.482330 
	C97.915298,55.498421 115.471687,43.865524 134.244583,33.929173 
	C156.236435,22.289059 179.170761,12.870224 202.723053,4.890722 
	C205.293106,4.019994 207.581146,2.316975 210.000000,0.999999 
	C213.361282,1.000000 216.722580,1.000000 220.541931,1.000002 
M152.282104,333.217560 
	C157.704712,338.634460 163.236099,343.948761 168.492920,349.522034 
	C170.422302,351.567535 172.075195,351.867737 174.563705,350.811554 
	C192.915268,343.022766 211.667831,336.077911 229.606461,327.439301 
	C261.218048,312.216339 288.784149,291.587799 309.682007,262.878723 
	C329.265198,235.975784 341.141327,205.574112 349.863770,173.794678 
	C350.325958,172.110703 348.683105,169.221283 347.189240,167.719864 
	C309.580627,129.920242 271.861481,92.230568 234.154816,54.528534 
	C233.004379,53.378231 231.779251,52.302612 230.373322,50.991013 
	C229.766251,52.846600 229.310669,54.264744 228.838882,55.677475 
	C218.548676,86.491417 205.005737,115.618591 184.675720,141.260834 
	C158.587051,174.166473 124.736839,196.660736 87.038475,213.905243 
	C74.731880,219.534683 62.127586,224.513367 49.089321,230.030930 
	C83.507759,264.447327 117.644928,298.582458 152.282104,333.217560 
M167.171967,50.685799 
	C165.508896,51.447803 163.837952,52.193123 162.183929,52.974277 
	C133.336334,66.598343 106.799362,83.485176 85.306465,107.480415 
	C61.005566,134.610580 46.639191,166.954346 36.131668,201.313004 
	C35.969769,201.842407 36.206238,202.493622 36.330433,203.953629 
	C50.727711,197.811295 64.743416,192.140839 78.503700,185.906586 
	C132.379669,161.497513 172.251114,123.361107 193.675262,67.396561 
	C197.566071,57.232929 201.046616,46.912254 204.716553,36.664082 
	C204.320770,36.301605 203.924988,35.939125 203.529205,35.576645 
	C191.628738,40.485348 179.728271,45.394051 167.171967,50.685799 
z"/>
<path fill="#000000" opacity="1.000000" stroke="none" 
	d="
M209.531342,0.999999 
	C207.581146,2.316975 205.293106,4.019994 202.723053,4.890722 
	C179.170761,12.870224 156.236435,22.289059 134.244583,33.929173 
	C115.471687,43.865524 97.915298,55.498421 81.802994,69.482330 
	C67.153282,82.196861 54.636395,96.645767 43.954487,112.657356 
	C31.784336,130.899719 22.299141,150.607498 15.131151,171.325485 
	C10.602915,184.413681 6.884070,197.781708 2.766063,211.012970 
	C2.639820,211.418610 2.111143,211.698990 1.385044,212.018890 
	C1.000000,141.739975 1.000000,71.479950 1.000000,1.000000 
	C70.354073,1.000000 139.708374,1.000000 209.531342,0.999999 
z"/>
<path fill="#4D4D4D" opacity="1.000000" stroke="none" 
	d="
M294.444153,481.000000 
	C292.937012,479.437622 292.088837,477.661530 290.778778,476.345001 
	C271.770020,457.242340 252.688812,438.211731 233.650986,419.137878 
	C229.051315,414.529541 228.714294,410.314667 232.449432,406.050842 
	C236.979996,400.879028 241.077652,400.617218 245.955078,405.477295 
	C265.633911,425.086182 285.272552,444.735565 304.882263,464.413635 
	C309.107513,468.653625 309.040344,472.092255 305.019531,476.488434 
	C303.909149,477.702454 302.916077,479.023804 301.934570,480.647949 
	C299.629425,481.000000 297.258881,481.000000 294.444153,481.000000 
z"/>
<path fill="#4D4D4D" opacity="1.000000" stroke="none" 
	d="
M481.000000,301.562500 
	C479.318390,303.180634 477.540344,304.246613 475.973938,305.564240 
	C471.945984,308.952423 468.437195,308.918396 464.688477,305.174683 
	C445.035065,285.547333 425.390930,265.910675 405.765503,246.255341 
	C400.783600,241.265823 400.720459,237.690079 405.387726,233.107437 
	C409.834076,228.741714 414.187958,228.782928 418.775726,233.365097 
	C437.602325,252.168747 456.405823,270.995575 475.208038,289.823639 
	C476.940521,291.558472 478.603729,293.362457 480.649536,295.067139 
	C481.000000,297.041656 481.000000,299.083344 481.000000,301.562500 
z"/>
<path fill="#4D4D4D" opacity="1.000000" stroke="none" 
	d="
M384.250488,371.749512 
	C389.677032,377.179626 394.911957,382.303009 400.011932,387.557434 
	C404.232727,391.906067 404.007538,395.638031 399.505005,399.982086 
	C395.249023,404.088165 391.647186,404.126648 387.529755,400.014038 
	C367.746399,380.253693 347.974121,360.482269 328.209839,340.702850 
	C323.512787,336.002228 323.577179,332.902191 328.383179,328.121094 
	C332.896240,323.631409 336.102997,323.611847 340.569519,328.075684 
	C355.049652,342.547150 369.523956,357.024445 384.250488,371.749512 
z"/>
<path fill="#FEFEFE" opacity="1.000000" stroke="none" 
	d="
M152.032104,332.967590 
	C117.644928,298.582458 83.507759,264.447327 49.089321,230.030930 
	C62.127586,224.513367 74.731880,219.534683 87.038475,213.905243 
	C124.736839,196.660736 158.587051,174.166473 184.675720,141.260834 
	C205.005737,115.618591 218.548676,86.491417 228.838882,55.677475 
	C229.310669,54.264744 229.766251,52.846600 230.373322,50.991013 
	C231.779251,52.302612 233.004379,53.378231 234.154816,54.528534 
	C271.861481,92.230568 309.580627,129.920242 347.189240,167.719864 
	C348.683105,169.221283 350.325958,172.110703 349.863770,173.794678 
	C341.141327,205.574112 329.265198,235.975784 309.682007,262.878723 
	C288.784149,291.587799 261.218048,312.216339 229.606461,327.439301 
	C211.667831,336.077911 192.915268,343.022766 174.563705,350.811554 
	C172.075195,351.867737 170.422302,351.567535 168.492920,349.522034 
	C163.236099,343.948761 157.704712,338.634460 152.032104,332.967590 
M223.525635,239.025635 
	C218.351593,244.203293 213.144867,249.348831 208.014053,254.568985 
	C204.073761,258.577911 204.173874,260.779541 208.268967,264.517853 
	C223.562973,278.479370 247.584229,277.908539 262.538574,263.228210 
	C277.410919,248.628357 278.368103,224.505035 264.691040,208.981369 
	C260.655396,204.400879 258.317261,204.266556 254.029007,208.535400 
	C244.007462,218.511627 234.024323,228.526428 223.525635,239.025635 
M324.141266,178.469940 
	C324.755127,177.106766 325.487732,175.783646 325.963379,174.373840 
	C328.823822,165.895172 325.751526,155.920380 318.710693,150.633087 
	C311.531189,145.241653 301.677795,144.773224 294.335175,149.474319 
	C286.345093,154.589935 282.556152,163.797760 284.944885,172.831619 
	C287.249146,181.546188 292.987030,187.023254 301.782349,188.638580 
	C311.029907,190.336975 318.408203,186.829422 324.141266,178.469940 
M170.690506,326.340637 
	C182.785721,323.559723 190.352203,313.484802 188.562088,302.544189 
	C186.560242,290.309479 176.414261,282.587585 164.278015,284.062073 
	C153.091217,285.421204 144.936005,295.936188 146.033508,307.585724 
	C147.136154,319.289734 157.500870,327.518890 170.690506,326.340637 
M155.959351,249.359833 
	C161.338364,241.187057 161.420059,233.116180 156.193680,226.207321 
	C151.433182,219.914352 143.184799,217.258987 135.677765,219.602737 
	C128.100433,221.968475 122.895172,228.559052 122.293594,236.549011 
	C121.741661,243.879639 126.322472,251.525375 133.191803,254.738892 
	C140.597595,258.203369 148.848404,256.427673 155.959351,249.359833 
M247.624222,161.333435 
	C256.288452,154.727524 258.708191,144.980087 253.842010,136.286377 
	C249.376328,128.308197 239.685028,124.693268 231.055206,127.786758 
	C220.919556,131.420044 215.879974,142.667282 219.931213,152.613113 
	C224.273941,163.274582 235.689117,167.136063 247.624222,161.333435 
z"/>
<path fill="#FEFEFE" opacity="1.000000" stroke="none" 
	d="
M167.499878,50.494278 
	C179.728271,45.394051 191.628738,40.485348 203.529205,35.576645 
	C203.924988,35.939125 204.320770,36.301605 204.716553,36.664082 
	C201.046616,46.912254 197.566071,57.232929 193.675262,67.396561 
	C172.251114,123.361107 132.379669,161.497513 78.503700,185.906586 
	C64.743416,192.140839 50.727711,197.811295 36.330433,203.953629 
	C36.206238,202.493622 35.969769,201.842407 36.131668,201.313004 
	C46.639191,166.954346 61.005566,134.610580 85.306465,107.480415 
	C106.799362,83.485176 133.336334,66.598343 162.183929,52.974277 
	C163.837952,52.193123 165.508896,51.447803 167.499878,50.494278 
z"/>
<path fill="#504F4F" opacity="1.000000" stroke="none" 
	d="
M223.775635,238.775635 
	C234.024323,228.526428 244.007462,218.511627 254.029007,208.535400 
	C258.317261,204.266556 260.655396,204.400879 264.691040,208.981369 
	C278.368103,224.505035 277.410919,248.628357 262.538574,263.228210 
	C247.584229,277.908539 223.562973,278.479370 208.268967,264.517853 
	C204.173874,260.779541 204.073761,258.577911 208.014053,254.568985 
	C213.144867,249.348831 218.351593,244.203293 223.775635,238.775635 
M234.204361,265.038086 
	C234.772659,265.293488 235.351562,265.792694 235.907700,265.768524 
	C249.224060,265.189514 262.832581,252.206100 264.066315,238.900574 
	C264.165955,237.826447 263.866516,236.715302 263.755280,235.647644 
	C248.198395,236.118698 235.327377,248.645462 234.204361,265.038086 
z"/>
<path fill="#F9B295" opacity="1.000000" stroke="none" 
	d="
M323.958374,178.793213 
	C318.408203,186.829422 311.029907,190.336975 301.782349,188.638580 
	C292.987030,187.023254 287.249146,181.546188 284.944885,172.831619 
	C282.556152,163.797760 286.345093,154.589935 294.335175,149.474319 
	C301.677795,144.773224 311.531189,145.241653 318.710693,150.633087 
	C325.751526,155.920380 328.823822,165.895172 325.963379,174.373840 
	C325.487732,175.783646 324.755127,177.106766 323.958374,178.793213 
z"/>
<path fill="#F9B295" opacity="1.000000" stroke="none" 
	d="
M170.288864,326.432617 
	C157.500870,327.518890 147.136154,319.289734 146.033508,307.585724 
	C144.936005,295.936188 153.091217,285.421204 164.278015,284.062073 
	C176.414261,282.587585 186.560242,290.309479 188.562088,302.544189 
	C190.352203,313.484802 182.785721,323.559723 170.288864,326.432617 
z"/>
<path fill="#4F4F4F" opacity="1.000000" stroke="none" 
	d="
M155.732941,249.648102 
	C148.848404,256.427673 140.597595,258.203369 133.191803,254.738892 
	C126.322472,251.525375 121.741661,243.879639 122.293594,236.549011 
	C122.895172,228.559052 128.100433,221.968475 135.677765,219.602737 
	C143.184799,217.258987 151.433182,219.914352 156.193680,226.207321 
	C161.420059,233.116180 161.338364,241.187057 155.732941,249.648102 
z"/>
<path fill="#4F4F4F" opacity="1.000000" stroke="none" 
	d="
M247.315735,161.552872 
	C235.689117,167.136063 224.273941,163.274582 219.931213,152.613113 
	C215.879974,142.667282 220.919556,131.420044 231.055206,127.786758 
	C239.685028,124.693268 249.376328,128.308197 253.842010,136.286377 
	C258.708191,144.980087 256.288452,154.727524 247.315735,161.552872 
z"/>
<path fill="#E46A67" opacity="1.000000" stroke="none" 
	d="
M234.123245,264.636902 
	C235.327377,248.645462 248.198395,236.118698 263.755280,235.647644 
	C263.866516,236.715302 264.165955,237.826447 264.066315,238.900574 
	C262.832581,252.206100 249.224060,265.189514 235.907700,265.768524 
	C235.351562,265.792694 234.772659,265.293488 234.123245,264.636902 
z"/>
</svg>