<svg version="1.1" id="Layer_1" xmlns="http://www.w3.org/2000/svg" xmlns:xlink="http://www.w3.org/1999/xlink" x="0px" y="0px"
	 width="100%" viewBox="0 0 5906 5906" enable-background="new 0 0 5906 5906" xml:space="preserve">
<path fill="#010103" opacity="1.000000" stroke="none" 
	d="
M4020.000000,5912.000000 
	C2680.000244,5912.000000 1342.000488,5912.000000 4.000539,5912.000000 
	C4.000359,3942.667236 4.000359,1973.334473 4.000179,4.001331 
	C1973.332397,4.000888 3942.664795,4.000888 5911.998047,4.000444 
	C5911.998535,1973.332031 5911.998535,3942.664062 5911.999023,5911.998047 
	C5282.000000,5912.000000 4652.000000,5912.000000 4020.000000,5912.000000 
M2216.666016,4315.969727 
	C2219.630859,4318.440430 2222.927734,4320.607422 2225.509766,4323.428711 
	C2251.581543,4351.916992 2282.851318,4372.892578 2318.147705,4388.182617 
	C2357.180176,4405.091309 2398.240479,4412.441406 2440.460938,4414.368164 
	C2444.256348,4414.541504 2448.358643,4415.964844 2452.868652,4411.628418 
	C2453.899902,4392.685547 2450.613770,4372.988770 2447.226318,4353.465332 
	C2443.930420,4334.466797 2439.760010,4315.531738 2434.506836,4296.984375 
	C2429.076416,4277.810059 2422.766113,4258.772949 2415.208496,4240.344727 
	C2407.651611,4221.916992 2398.936035,4203.830566 2389.138428,4186.493164 
	C2379.665771,4169.729980 2368.937500,4153.530762 2357.343506,4138.152344 
	C2345.514404,4122.462402 2331.959961,4108.072266 2317.489014,4091.159180 
	C2327.478516,4091.524658 2333.572266,4095.594727 2339.807861,4098.860352 
	C2368.209473,4113.733887 2394.385010,4132.116211 2420.319824,4150.797852 
	C2465.186523,4183.115234 2509.710205,4215.909668 2554.546631,4248.269531 
	C2645.325439,4313.788574 2738.232666,4376.024414 2836.365479,4430.161621 
	C2932.180176,4483.020020 3031.454346,4527.828613 3136.782471,4558.294434 
	C3204.705322,4577.940430 3273.726318,4592.638672 3344.246094,4598.824707 
	C3396.058350,4603.370117 3447.948242,4604.552246 3500.019531,4600.826172 
	C3563.406494,4596.289062 3625.650635,4586.230469 3686.493896,4567.947754 
	C3783.658936,4538.749512 3870.508057,4491.177734 3944.839355,4421.637207 
	C4004.380615,4365.933594 4051.329346,4300.808594 4087.735352,4228.083984 
	C4144.415039,4114.859863 4178.149902,3995.152100 4188.928223,3868.867188 
	C4195.772461,3788.680420 4192.196777,3709.032959 4178.640625,3629.869629 
	C4163.724609,3542.766602 4137.137695,3459.129883 4099.344238,3379.288818 
	C4083.416016,3345.638916 4063.942383,3313.673828 4047.820557,3280.107178 
	C4030.803223,3244.675049 4006.404297,3215.017334 3979.584229,3187.157959 
	C3912.827881,3117.814453 3833.838623,3067.268555 3742.797607,3035.847412 
	C3627.791748,2996.155762 3510.554688,2992.846191 3391.757080,3014.529297 
	C3379.706543,3016.728760 3368.585449,3020.562256 3358.395508,3027.057861 
	C3348.298096,3033.494629 3338.177490,3039.975098 3328.638184,3047.191162 
	C3298.742676,3069.803955 3272.597412,3096.419678 3247.801514,3124.402100 
	C3246.411865,3125.970459 3243.758057,3127.779053 3246.250732,3130.825928 
	C3321.170410,3113.754883 3396.942627,3103.677979 3473.795166,3102.260254 
	C3542.710449,3100.988770 3610.878174,3106.490723 3677.834961,3123.909424 
	C3762.529541,3145.943115 3834.889893,3187.673096 3893.631348,3253.527588 
	C4007.292236,3380.953125 4073.256348,3529.157227 4090.984619,3698.805664 
	C4098.790527,3773.504639 4094.860840,3847.961914 4082.679688,3921.926025 
	C4069.646729,4001.063721 4046.965576,4077.530762 4017.124512,4151.957031 
	C4010.881104,4167.529785 4003.436768,4182.263184 3993.937500,4196.001953 
	C3912.947021,4313.141113 3807.393555,4399.828125 3674.508545,4452.057129 
	C3555.638184,4498.777344 3432.573975,4507.527344 3306.980957,4490.143555 
	C3240.166260,4480.895508 3175.089600,4464.270020 3111.443604,4442.098145 
	C2977.321777,4395.371582 2852.911865,4329.318848 2735.950684,4249.438965 
	C2608.338867,4162.285645 2482.096680,4073.128906 2355.115967,3985.049072 
	C2298.154053,3945.537598 2238.763672,3910.003174 2176.954346,3878.573730 
	C2139.545166,3859.551514 2101.375488,3842.308838 2061.026367,3830.332275 
	C2037.941162,3823.479980 2014.613159,3818.549316 1990.269653,3819.586426 
	C1974.559326,3820.255859 1960.646118,3825.080566 1947.571899,3834.730957 
	C1950.949097,3842.898926 1957.423584,3847.677246 1963.370605,3852.863525 
	C1978.923340,3866.426025 1994.830933,3879.599121 2010.041260,3893.533936 
	C2071.051514,3949.427002 2128.968262,4008.336182 2182.167236,4071.780029 
	C2223.324219,4120.862305 2261.443848,4172.150879 2294.215820,4227.271973 
	C2297.508057,4232.809570 2302.418701,4237.809570 2302.099121,4244.842285 
	C2298.652344,4249.433105 2295.288574,4247.622070 2291.652100,4245.414062 
	C2272.317627,4233.676270 2253.361328,4221.218750 2233.449463,4210.549316 
	C2198.004150,4191.555664 2160.401367,4178.360840 2120.223633,4173.756348 
	C2104.527344,4171.957520 2088.627686,4170.132812 2072.890137,4175.516113 
	C2072.890137,4182.170410 2072.159912,4188.211426 2073.028076,4194.013184 
	C2075.588623,4211.127930 2078.088135,4228.301758 2081.840576,4245.179199 
	C2104.878174,4348.795410 2144.524170,4445.726562 2200.702881,4535.761719 
	C2273.706787,4652.760742 2369.082031,4746.754395 2489.754150,4814.320312 
	C2597.092285,4874.420410 2713.051514,4906.626465 2834.739746,4919.861328 
	C2882.503662,4925.056152 2930.465576,4926.499512 2978.485840,4926.033203 
	C2993.809326,4925.884766 3009.155273,4924.571777 3024.445801,4925.098633 
	C3071.288330,4926.712402 3117.687988,4922.423828 3163.770264,4914.840332 
	C3237.470459,4902.712402 3309.287598,4883.145996 3379.638672,4858.129883 
	C3511.344238,4811.297363 3634.599854,4747.533203 3752.076172,4672.203613 
	C3753.609131,4671.220703 3754.643555,4669.459961 3756.653076,4667.243164 
	C3742.765869,4643.113281 3728.933350,4619.078125 3714.616455,4594.201172 
	C3702.361084,4600.939453 3691.422363,4607.053223 3680.395264,4613.002930 
	C3499.870850,4710.406250 3309.661621,4780.403320 3107.012451,4814.869629 
	C3066.289062,4821.795410 3025.304199,4827.018555 2983.793945,4826.358887 
	C2927.765137,4825.469727 2872.046387,4821.598145 2816.602051,4812.906738 
	C2747.331299,4802.047363 2679.756348,4785.057129 2614.431885,4759.607910 
	C2528.541992,4726.146973 2450.482666,4679.898438 2383.970947,4615.447266 
	C2298.953613,4533.062500 2244.116211,4433.437012 2216.666016,4315.969727 
M3524.884033,2630.379150 
	C3439.967285,2610.604492 3354.975098,2591.144287 3270.214844,2570.719727 
	C3257.327637,2567.614258 3247.783936,2569.165039 3237.041016,2576.703857 
	C3160.291504,2630.562744 3090.695557,2692.339844 3028.892578,2762.841797 
	C2980.439453,2818.115234 2937.377441,2877.263428 2901.728760,2941.655029 
	C2894.964844,2953.873047 2888.939697,2966.516357 2881.839111,2978.529053 
	C2838.609375,3051.665039 2805.162598,3129.071045 2779.910400,3210.113281 
	C2739.589355,3339.517578 2721.757080,3472.482666 2717.201416,3607.502441 
	C2715.560303,3656.136475 2716.612061,3704.750977 2718.565430,3753.404297 
	C2721.562256,3828.048584 2730.504395,3902.133545 2737.056641,3976.446533 
	C2737.758545,3984.408691 2740.689453,3990.177734 2747.281982,3994.718994 
	C2769.767578,4010.209229 2792.019043,4026.039307 2814.512451,4041.517822 
	C2816.735596,4043.047607 2820.006348,4043.055176 2823.407715,4043.927246 
	C2823.407715,4039.788086 2823.801025,4037.099121 2823.350586,4034.560059 
	C2810.186768,3960.364990 2801.359375,3885.595947 2797.385986,3810.414795 
	C2792.458008,3717.177002 2792.969238,3623.957520 2803.078369,3530.897217 
	C2810.716064,3460.591797 2822.545898,3391.129639 2840.304688,3322.714844 
	C2875.059814,3188.822754 2929.235596,3063.552490 3007.408203,2949.054443 
	C3066.454346,2862.570557 3135.851562,2785.731201 3219.515137,2722.287598 
	C3243.414062,2704.164551 3268.403076,2687.728516 3295.283203,2674.189697 
	C3307.193604,2668.190430 3318.454346,2666.936523 3331.676270,2670.384521 
	C3390.261230,2685.661865 3449.147949,2699.774902 3507.833984,2714.670166 
	C3565.849609,2729.395020 3622.612305,2725.840332 3678.536133,2704.733643 
	C3713.097900,2691.689453 3744.911621,2673.717285 3773.906250,2651.097168 
	C3838.356689,2600.816650 3892.242920,2541.806152 3924.062012,2465.070557 
	C3927.374268,2457.082520 3931.556885,2449.443604 3934.656250,2441.381836 
	C3941.339600,2423.997559 3948.091309,2406.609619 3953.853516,2388.910156 
	C3959.230957,2372.393066 3962.334229,2355.367920 3959.144287,2336.287354 
	C3897.730469,2318.427979 3835.333496,2302.565918 3773.291748,2285.462891 
	C3710.571777,2268.172607 3647.653076,2251.603760 3584.100830,2234.525146 
	C3583.655029,2228.549316 3583.149658,2223.352051 3582.896729,2218.142334 
	C3580.591553,2170.677979 3573.044189,2124.250977 3557.227051,2079.220215 
	C3530.889893,2004.240112 3487.817383,1940.158081 3431.852539,1884.317383 
	C3401.550293,1854.082520 3368.540527,1827.175049 3332.034180,1804.765259 
	C3324.826172,1800.340698 3319.672852,1795.002563 3316.833252,1787.179199 
	C3315.927734,1784.684570 3314.673828,1782.316284 3313.574463,1779.892456 
	C3224.790283,1584.130249 3136.011475,1388.365601 3047.207031,1192.612549 
	C3041.729248,1180.538208 3036.046631,1168.556885 3030.626221,1156.892090 
	C3018.820557,1152.835571 3008.322754,1147.179565 2995.342529,1146.892090 
	C2976.070801,1238.406128 2957.074707,1328.923218 2937.935791,1419.410278 
	C2918.816162,1509.807129 2900.286377,1600.333008 2880.497559,1691.061890 
	C2861.229736,1691.532837 2843.256104,1691.528442 2825.339355,1692.532959 
	C2806.835205,1693.570801 2788.386230,1695.589355 2769.552002,1697.209961 
	C2766.196289,1690.535400 2763.106201,1684.714844 2760.300537,1678.760620 
	C2659.023926,1463.837524 2557.774170,1248.901611 2456.518311,1033.968750 
	C2454.250000,1029.153809 2452.318848,1024.125977 2449.533447,1019.628906 
	C2447.892578,1016.979004 2445.218018,1014.003906 2442.422852,1013.192932 
	C2426.033936,1008.437927 2410.281494,1001.369385 2392.501953,997.882141 
	C2390.789062,1004.743225 2389.186035,1010.419250 2387.964600,1016.176208 
	C2379.257568,1057.212524 2370.622559,1098.264038 2361.976074,1139.313232 
	C2341.260010,1237.663452 2320.570068,1336.019287 2299.833008,1434.364990 
	C2280.473877,1526.175781 2261.043945,1617.971558 2241.690186,1709.783447 
	C2229.744629,1766.450562 2217.729736,1823.103882 2206.058594,1879.827637 
	C2201.337891,1902.772217 2217.420654,1921.094604 2240.762207,1919.601929 
	C2251.391113,1918.922119 2261.697754,1916.296875 2271.431152,1909.892456 
	C2278.883057,1875.571289 2286.379639,1841.130249 2293.835449,1806.680420 
	C2301.298340,1772.198608 2308.669678,1737.696899 2316.175049,1703.224243 
	C2323.678467,1668.760376 2331.399414,1634.343872 2338.837891,1599.866089 
	C2346.276123,1565.389038 2353.367676,1530.837158 2360.823486,1496.364014 
	C2368.278076,1461.896606 2376.093018,1427.507080 2383.568604,1393.044067 
	C2391.045410,1358.574951 2397.927979,1323.973022 2405.754150,1289.584717 
	C2413.498535,1255.556519 2419.495361,1221.102173 2429.874023,1182.844482 
	C2444.603271,1211.252319 2456.125488,1236.421509 2468.169922,1261.319702 
	C2480.053223,1285.884644 2491.960938,1310.437744 2503.816895,1335.015991 
	C2515.960449,1360.190186 2528.040039,1385.395264 2540.175049,1410.573730 
	C2552.021240,1435.152466 2563.915283,1459.708252 2575.763184,1484.286255 
	C2587.903809,1509.471069 2600.013428,1534.670776 2612.137695,1559.863403 
	C2624.259521,1585.050659 2636.375977,1610.240356 2648.506348,1635.423340 
	C2660.344971,1659.999878 2672.176758,1684.579834 2684.050781,1709.139282 
	C2696.200439,1734.268433 2708.397461,1759.374512 2720.382568,1784.096680 
	C2723.439209,1784.358276 2725.422852,1784.742065 2727.387451,1784.661255 
	C2739.374268,1784.168701 2751.370117,1783.768677 2763.338867,1782.976562 
	C2865.521729,1776.212524 2967.100830,1780.335938 3067.784668,1800.020508 
	C3136.090576,1813.374756 3201.643799,1834.799438 3263.013672,1868.072021 
	C3335.822998,1907.546631 3396.401855,1960.529297 3440.942871,2030.846558 
	C3484.964844,2100.344238 3509.643066,2176.093750 3512.876221,2258.515381 
	C3513.343750,2270.433594 3512.941162,2282.385986 3512.941162,2294.557861 
	C3518.475830,2296.395996 3523.437012,2298.286133 3528.530762,2299.698730 
	C3606.713623,2321.385254 3684.927979,2342.958740 3763.103760,2364.670410 
	C3799.619629,2374.812256 3836.055908,2385.240723 3872.564209,2395.410156 
	C3877.153320,2396.688232 3881.606934,2397.661133 3883.217041,2404.131348 
	C3882.573242,2405.751953 3881.806885,2408.274170 3880.620361,2410.580566 
	C3858.595215,2453.390625 3832.794189,2493.685059 3800.646240,2529.687744 
	C3775.640381,2557.692139 3747.661621,2582.142334 3715.027344,2601.052246 
	C3671.308838,2626.385254 3624.484131,2639.441650 3573.784668,2636.491699 
	C3558.537354,2635.604736 3543.386963,2633.046387 3524.884033,2630.379150 
M3338.929443,4343.761719 
	C3344.103516,4343.490723 3349.277588,4343.220215 3354.808350,4342.931152 
	C3355.416260,4339.381836 3355.945312,4336.857422 3356.270508,4334.306641 
	C3361.490479,4293.349609 3368.783447,4252.808105 3379.885254,4212.986816 
	C3413.030762,4094.097412 3472.807861,3991.338379 3565.466797,3908.950439 
	C3640.247559,3842.458008 3725.611816,3795.168945 3823.137451,3770.800049 
	C3826.857910,3769.870361 3830.328125,3767.938232 3833.734131,3766.546875 
	C3833.734131,3742.414307 3833.736816,3719.114990 3833.718262,3695.815430 
	C3833.717773,3695.173584 3833.632812,3694.444336 3833.319336,3693.914062 
	C3832.998535,3693.371826 3832.347656,3693.024658 3830.790527,3691.694824 
	C3805.851318,3689.870850 3780.143555,3692.657959 3754.692139,3697.468994 
	C3693.560547,3709.024902 3638.309326,3734.146973 3588.221436,3770.895508 
	C3539.391357,3806.721680 3498.331787,3850.171387 3464.237305,3899.962646 
	C3387.563477,4011.937988 3340.752197,4134.811035 3330.421387,4270.902344 
	C3328.743408,4293.006348 3329.981445,4314.784668 3332.089111,4336.648438 
	C3332.309814,4338.940430 3334.348877,4341.056641 3338.929443,4343.761719 
z"/>
<path fill="#FBFCFC" opacity="1.000000" stroke="none" 
	d="
M2216.140869,4317.440918 
	C2244.116211,4433.437012 2298.953613,4533.062500 2383.970947,4615.447266 
	C2450.482666,4679.898438 2528.541992,4726.146973 2614.431885,4759.607910 
	C2679.756348,4785.057129 2747.331299,4802.047363 2816.602051,4812.906738 
	C2872.046387,4821.598145 2927.765137,4825.469727 2983.793945,4826.358887 
	C3025.304199,4827.018555 3066.289062,4821.795410 3107.012451,4814.869629 
	C3309.661621,4780.403320 3499.870850,4710.406250 3680.395264,4613.002930 
	C3691.422363,4607.053223 3702.361084,4600.939453 3714.616455,4594.201172 
	C3728.933350,4619.078125 3742.765869,4643.113281 3756.653076,4667.243164 
	C3754.643555,4669.459961 3753.609131,4671.220703 3752.076172,4672.203613 
	C3634.599854,4747.533203 3511.344238,4811.297363 3379.638672,4858.129883 
	C3309.287598,4883.145996 3237.470459,4902.712402 3163.770264,4914.840332 
	C3117.687988,4922.423828 3071.288330,4926.712402 3024.445801,4925.098633 
	C3009.155273,4924.571777 2993.809326,4925.884766 2978.485840,4926.033203 
	C2930.465576,4926.499512 2882.503662,4925.056152 2834.739746,4919.861328 
	C2713.051514,4906.626465 2597.092285,4874.420410 2489.754150,4814.320312 
	C2369.082031,4746.754395 2273.706787,4652.760742 2200.702881,4535.761719 
	C2144.524170,4445.726562 2104.878174,4348.795410 2081.840576,4245.179199 
	C2078.088135,4228.301758 2075.588623,4211.127930 2073.028076,4194.013184 
	C2072.159912,4188.211426 2072.890137,4182.170410 2072.890137,4175.516113 
	C2088.627686,4170.132812 2104.527344,4171.957520 2120.223633,4173.756348 
	C2160.401367,4178.360840 2198.004150,4191.555664 2233.449463,4210.549316 
	C2253.361328,4221.218750 2272.317627,4233.676270 2291.652100,4245.414062 
	C2295.288574,4247.622070 2298.652344,4249.433105 2302.099121,4244.842285 
	C2302.418701,4237.809570 2297.508057,4232.809570 2294.215820,4227.271973 
	C2261.443848,4172.150879 2223.324219,4120.862305 2182.167236,4071.780029 
	C2128.968262,4008.336182 2071.051514,3949.427002 2010.041260,3893.533936 
	C1994.830933,3879.599121 1978.923340,3866.426025 1963.370605,3852.863525 
	C1957.423584,3847.677246 1950.949097,3842.898926 1947.571899,3834.730957 
	C1960.646118,3825.080566 1974.559326,3820.255859 1990.269653,3819.586426 
	C2014.613159,3818.549316 2037.941162,3823.479980 2061.026367,3830.332275 
	C2101.375488,3842.308838 2139.545166,3859.551514 2176.954346,3878.573730 
	C2238.763672,3910.003174 2298.154053,3945.537598 2355.115967,3985.049072 
	C2482.096680,4073.128906 2608.338867,4162.285645 2735.950684,4249.438965 
	C2852.911865,4329.318848 2977.321777,4395.371582 3111.443604,4442.098145 
	C3175.089600,4464.270020 3240.166260,4480.895508 3306.980957,4490.143555 
	C3432.573975,4507.527344 3555.638184,4498.777344 3674.508545,4452.057129 
	C3807.393555,4399.828125 3912.947021,4313.141113 3993.937500,4196.001953 
	C4003.436768,4182.263184 4010.881104,4167.529785 4017.124512,4151.957031 
	C4046.965576,4077.530762 4069.646729,4001.063721 4082.679688,3921.926025 
	C4094.860840,3847.961914 4098.790527,3773.504639 4090.984619,3698.805664 
	C4073.256348,3529.157227 4007.292236,3380.953125 3893.631348,3253.527588 
	C3834.889893,3187.673096 3762.529541,3145.943115 3677.834961,3123.909424 
	C3610.878174,3106.490723 3542.710449,3100.988770 3473.795166,3102.260254 
	C3396.942627,3103.677979 3321.170410,3113.754883 3246.250732,3130.825928 
	C3243.758057,3127.779053 3246.411865,3125.970459 3247.801514,3124.402100 
	C3272.597412,3096.419678 3298.742676,3069.803955 3328.638184,3047.191162 
	C3338.177490,3039.975098 3348.298096,3033.494629 3358.395508,3027.057861 
	C3368.585449,3020.562256 3379.706543,3016.728760 3391.757080,3014.529297 
	C3510.554688,2992.846191 3627.791748,2996.155762 3742.797607,3035.847412 
	C3833.838623,3067.268555 3912.827881,3117.814453 3979.584229,3187.157959 
	C4006.404297,3215.017334 4030.803223,3244.675049 4047.820557,3280.107178 
	C4063.942383,3313.673828 4083.416016,3345.638916 4099.344238,3379.288818 
	C4137.137695,3459.129883 4163.724609,3542.766602 4178.640625,3629.869629 
	C4192.196777,3709.032959 4195.772461,3788.680420 4188.928223,3868.867188 
	C4178.149902,3995.152100 4144.415039,4114.859863 4087.735352,4228.083984 
	C4051.329346,4300.808594 4004.380615,4365.933594 3944.839355,4421.637207 
	C3870.508057,4491.177734 3783.658936,4538.749512 3686.493896,4567.947754 
	C3625.650635,4586.230469 3563.406494,4596.289062 3500.019531,4600.826172 
	C3447.948242,4604.552246 3396.058350,4603.370117 3344.246094,4598.824707 
	C3273.726318,4592.638672 3204.705322,4577.940430 3136.782471,4558.294434 
	C3031.454346,4527.828613 2932.180176,4483.020020 2836.365479,4430.161621 
	C2738.232666,4376.024414 2645.325439,4313.788574 2554.546631,4248.269531 
	C2509.710205,4215.909668 2465.186523,4183.115234 2420.319824,4150.797852 
	C2394.385010,4132.116211 2368.209473,4113.733887 2339.807861,4098.860352 
	C2333.572266,4095.594727 2327.478516,4091.524658 2317.489014,4091.159180 
	C2331.959961,4108.072266 2345.514404,4122.462402 2357.343506,4138.152344 
	C2368.937500,4153.530762 2379.665771,4169.729980 2389.138428,4186.493164 
	C2398.936035,4203.830566 2407.651611,4221.916992 2415.208496,4240.344727 
	C2422.766113,4258.772949 2429.076416,4277.810059 2434.506836,4296.984375 
	C2439.760010,4315.531738 2443.930420,4334.466797 2447.226318,4353.465332 
	C2450.613770,4372.988770 2453.899902,4392.685547 2452.868652,4411.628418 
	C2448.358643,4415.964844 2444.256348,4414.541504 2440.460938,4414.368164 
	C2398.240479,4412.441406 2357.180176,4405.091309 2318.147705,4388.182617 
	C2282.851318,4372.892578 2251.581543,4351.916992 2225.509766,4323.428711 
	C2222.927734,4320.607422 2219.630859,4318.440430 2216.140869,4317.440918 
M2300.355469,4251.420898 
	C2302.228271,4252.760742 2304.101318,4254.100586 2305.953613,4255.425781 
	C2306.734619,4254.414062 2307.530518,4253.799316 2307.427734,4253.447754 
	C2306.787842,4251.256348 2306.457031,4248.670410 2305.047607,4247.082031 
	C2303.115723,4244.905762 2300.709229,4245.614746 2300.355469,4251.420898 
z"/>
<path fill="#FBFBFB" opacity="1.000000" stroke="none" 
	d="
M3526.538086,2630.816406 
	C3543.386963,2633.046387 3558.537354,2635.604736 3573.784668,2636.491699 
	C3624.484131,2639.441650 3671.308838,2626.385254 3715.027344,2601.052246 
	C3747.661621,2582.142334 3775.640381,2557.692139 3800.646240,2529.687744 
	C3832.794189,2493.685059 3858.595215,2453.390625 3880.620361,2410.580566 
	C3881.806885,2408.274170 3882.573242,2405.751953 3883.217041,2404.131348 
	C3881.606934,2397.661133 3877.153320,2396.688232 3872.564209,2395.410156 
	C3836.055908,2385.240723 3799.619629,2374.812256 3763.103760,2364.670410 
	C3684.927979,2342.958740 3606.713623,2321.385254 3528.530762,2299.698730 
	C3523.437012,2298.286133 3518.475830,2296.395996 3512.941162,2294.557861 
	C3512.941162,2282.385986 3513.343750,2270.433594 3512.876221,2258.515381 
	C3509.643066,2176.093750 3484.964844,2100.344238 3440.942871,2030.846558 
	C3396.401855,1960.529297 3335.822998,1907.546631 3263.013672,1868.072021 
	C3201.643799,1834.799438 3136.090576,1813.374756 3067.784668,1800.020508 
	C2967.100830,1780.335938 2865.521729,1776.212524 2763.338867,1782.976562 
	C2751.370117,1783.768677 2739.374268,1784.168701 2727.387451,1784.661255 
	C2725.422852,1784.742065 2723.439209,1784.358276 2720.382568,1784.096680 
	C2708.397461,1759.374512 2696.200439,1734.268433 2684.050781,1709.139282 
	C2672.176758,1684.579834 2660.344971,1659.999878 2648.506348,1635.423340 
	C2636.375977,1610.240356 2624.259521,1585.050659 2612.137695,1559.863403 
	C2600.013428,1534.670776 2587.903809,1509.471069 2575.763184,1484.286255 
	C2563.915283,1459.708252 2552.021240,1435.152466 2540.175049,1410.573730 
	C2528.040039,1385.395264 2515.960449,1360.190186 2503.816895,1335.015991 
	C2491.960938,1310.437744 2480.053223,1285.884644 2468.169922,1261.319702 
	C2456.125488,1236.421509 2444.603271,1211.252319 2429.874023,1182.844482 
	C2419.495361,1221.102173 2413.498535,1255.556519 2405.754150,1289.584717 
	C2397.927979,1323.973022 2391.045410,1358.574951 2383.568604,1393.044067 
	C2376.093018,1427.507080 2368.278076,1461.896606 2360.823486,1496.364014 
	C2353.367676,1530.837158 2346.276123,1565.389038 2338.837891,1599.866089 
	C2331.399414,1634.343872 2323.678467,1668.760376 2316.175049,1703.224243 
	C2308.669678,1737.696899 2301.298340,1772.198608 2293.835449,1806.680420 
	C2286.379639,1841.130249 2278.883057,1875.571289 2271.431152,1909.892456 
	C2261.697754,1916.296875 2251.391113,1918.922119 2240.762207,1919.601929 
	C2217.420654,1921.094604 2201.337891,1902.772217 2206.058594,1879.827637 
	C2217.729736,1823.103882 2229.744629,1766.450562 2241.690186,1709.783447 
	C2261.043945,1617.971558 2280.473877,1526.175781 2299.833008,1434.364990 
	C2320.570068,1336.019287 2341.260010,1237.663452 2361.976074,1139.313232 
	C2370.622559,1098.264038 2379.257568,1057.212524 2387.964600,1016.176208 
	C2389.186035,1010.419250 2390.789062,1004.743225 2392.501953,997.882141 
	C2410.281494,1001.369385 2426.033936,1008.437927 2442.422852,1013.192932 
	C2445.218018,1014.003906 2447.892578,1016.979004 2449.533447,1019.628906 
	C2452.318848,1024.125977 2454.250000,1029.153809 2456.518311,1033.968750 
	C2557.774170,1248.901611 2659.023926,1463.837524 2760.300537,1678.760620 
	C2763.106201,1684.714844 2766.196289,1690.535400 2769.552002,1697.209961 
	C2788.386230,1695.589355 2806.835205,1693.570801 2825.339355,1692.532959 
	C2843.256104,1691.528442 2861.229736,1691.532837 2880.497559,1691.061890 
	C2900.286377,1600.333008 2918.816162,1509.807129 2937.935791,1419.410278 
	C2957.074707,1328.923218 2976.070801,1238.406128 2995.342529,1146.892090 
	C3008.322754,1147.179565 3018.820557,1152.835571 3030.626221,1156.892090 
	C3036.046631,1168.556885 3041.729248,1180.538208 3047.207031,1192.612549 
	C3136.011475,1388.365601 3224.790283,1584.130249 3313.574463,1779.892456 
	C3314.673828,1782.316284 3315.927734,1784.684570 3316.833252,1787.179199 
	C3319.672852,1795.002563 3324.826172,1800.340698 3332.034180,1804.765259 
	C3368.540527,1827.175049 3401.550293,1854.082520 3431.852539,1884.317383 
	C3487.817383,1940.158081 3530.889893,2004.240112 3557.227051,2079.220215 
	C3573.044189,2124.250977 3580.591553,2170.677979 3582.896729,2218.142334 
	C3583.149658,2223.352051 3583.655029,2228.549316 3584.100830,2234.525146 
	C3647.653076,2251.603760 3710.571777,2268.172607 3773.291748,2285.462891 
	C3835.333496,2302.565918 3897.730469,2318.427979 3959.144287,2336.287354 
	C3962.334229,2355.367920 3959.230957,2372.393066 3953.853516,2388.910156 
	C3948.091309,2406.609619 3941.339600,2423.997559 3934.656250,2441.381836 
	C3931.556885,2449.443604 3927.374268,2457.082520 3924.062012,2465.070557 
	C3892.242920,2541.806152 3838.356689,2600.816650 3773.906250,2651.097168 
	C3744.911621,2673.717285 3713.097900,2691.689453 3678.536133,2704.733643 
	C3622.612305,2725.840332 3565.849609,2729.395020 3507.833984,2714.670166 
	C3449.147949,2699.774902 3390.261230,2685.661865 3331.676270,2670.384521 
	C3318.454346,2666.936523 3307.193604,2668.190430 3295.283203,2674.189697 
	C3268.403076,2687.728516 3243.414062,2704.164551 3219.515137,2722.287598 
	C3135.851562,2785.731201 3066.454346,2862.570557 3007.408203,2949.054443 
	C2929.235596,3063.552490 2875.059814,3188.822754 2840.304688,3322.714844 
	C2822.545898,3391.129639 2810.716064,3460.591797 2803.078369,3530.897217 
	C2792.969238,3623.957520 2792.458008,3717.177002 2797.385986,3810.414795 
	C2801.359375,3885.595947 2810.186768,3960.364990 2823.350586,4034.560059 
	C2823.801025,4037.099121 2823.407715,4039.788086 2823.407715,4043.927246 
	C2820.006348,4043.055176 2816.735596,4043.047607 2814.512451,4041.517822 
	C2792.019043,4026.039307 2769.767578,4010.209229 2747.281982,3994.718994 
	C2740.689453,3990.177734 2737.758545,3984.408691 2737.056641,3976.446533 
	C2730.504395,3902.133545 2721.562256,3828.048584 2718.565430,3753.404297 
	C2716.612061,3704.750977 2715.560303,3656.136475 2717.201416,3607.502441 
	C2721.757080,3472.482666 2739.589355,3339.517578 2779.910400,3210.113281 
	C2805.162598,3129.071045 2838.609375,3051.665039 2881.839111,2978.529053 
	C2888.939697,2966.516357 2894.964844,2953.873047 2901.728760,2941.655029 
	C2937.377441,2877.263428 2980.439453,2818.115234 3028.892578,2762.841797 
	C3090.695557,2692.339844 3160.291504,2630.562744 3237.041016,2576.703857 
	C3247.783936,2569.165039 3257.327637,2567.614258 3270.214844,2570.719727 
	C3354.975098,2591.144287 3439.967285,2610.604492 3526.538086,2630.816406 
M3143.664307,1586.396606 
	C3125.014160,1545.968750 3106.475586,1505.489014 3087.683105,1465.127441 
	C3068.680664,1424.314575 3050.583984,1383.064819 3028.799561,1338.733398 
	C3005.117188,1457.409790 2982.244141,1571.810181 2959.461914,1687.413208 
	C2967.764893,1688.862671 2974.861084,1690.188110 2981.986572,1691.330444 
	C3017.420654,1697.010132 3053.035156,1701.744629 3088.257080,1708.521606 
	C3130.697998,1716.688110 3172.498047,1727.590942 3212.031250,1745.742188 
	C3212.762451,1746.077759 3214.001953,1745.305908 3216.262939,1744.730347 
	C3192.737793,1692.572021 3168.706055,1640.904297 3143.664307,1586.396606 
z"/>
<path fill="#FAFAFA" opacity="1.000000" stroke="none" 
	d="
M3337.236816,4343.507812 
	C3334.348877,4341.056641 3332.309814,4338.940430 3332.089111,4336.648438 
	C3329.981445,4314.784668 3328.743408,4293.006348 3330.421387,4270.902344 
	C3340.752197,4134.811035 3387.563477,4011.937988 3464.237305,3899.962646 
	C3498.331787,3850.171387 3539.391357,3806.721680 3588.221436,3770.895508 
	C3638.309326,3734.146973 3693.560547,3709.024902 3754.692139,3697.468994 
	C3780.143555,3692.657959 3805.851318,3689.870850 3830.790527,3691.694824 
	C3832.347656,3693.024658 3832.998535,3693.371826 3833.319336,3693.914062 
	C3833.632812,3694.444336 3833.717773,3695.173584 3833.718262,3695.815430 
	C3833.736816,3719.114990 3833.734131,3742.414307 3833.734131,3766.546875 
	C3830.328125,3767.938232 3826.857910,3769.870361 3823.137451,3770.800049 
	C3725.611816,3795.168945 3640.247559,3842.458008 3565.466797,3908.950439 
	C3472.807861,3991.338379 3413.030762,4094.097412 3379.885254,4212.986816 
	C3368.783447,4252.808105 3361.490479,4293.349609 3356.270508,4334.306641 
	C3355.945312,4336.857422 3355.416260,4339.381836 3354.808350,4342.931152 
	C3349.277588,4343.220215 3344.103516,4343.490723 3337.236816,4343.507812 
z"/>
<path fill="#010103" opacity="1.000000" stroke="none" 
	d="
M2299.713135,4249.766113 
	C2300.709229,4245.614746 2303.115723,4244.905762 2305.047607,4247.082031 
	C2306.457031,4248.670410 2306.787842,4251.256348 2307.427734,4253.447754 
	C2307.530518,4253.799316 2306.734619,4254.414062 2305.953613,4255.425781 
	C2304.101318,4254.100586 2302.228271,4252.760742 2299.713135,4249.766113 
z"/>
<path fill="#050507" opacity="1.000000" stroke="none" 
	d="
M3144.187012,1587.808472 
	C3168.706055,1640.904297 3192.737793,1692.572021 3216.262939,1744.730347 
	C3214.001953,1745.305908 3212.762451,1746.077759 3212.031250,1745.742188 
	C3172.498047,1727.590942 3130.697998,1716.688110 3088.257080,1708.521606 
	C3053.035156,1701.744629 3017.420654,1697.010132 2981.986572,1691.330444 
	C2974.861084,1690.188110 2967.764893,1688.862671 2959.461914,1687.413208 
	C2982.244141,1571.810181 3005.117188,1457.409790 3028.799561,1338.733398 
	C3050.583984,1383.064819 3068.680664,1424.314575 3087.683105,1465.127441 
	C3106.475586,1505.489014 3125.014160,1545.968750 3144.187012,1587.808472 
z"/>
</svg>